PathFileType	4	(X/Y/Z)	S01_0003_Gait_markers.trc
DataRate	CameraRate	NumFrames	NumMarkers	Units	OrigDataRate	OrigDataStartFrame	OrigNumFrames
250.000000	250.000000	4	54	mm	250.000000	0	314
Frame#	Time	HEAD_ANT			R_HEAD			L_HEAD			C7			R_BACK			L_BACK			STERNUM			R_ACROMION			R_HUM_PROX			R_HUM_ANT			R_HUM_POST			R_ELBOW_LAT			R_ELBOW_MED			R_FOREARM			R_WIRST_LAT			R_WRITS_MED			R_HAND			L_ACROMION			L_HUM_PROX			L_HUM_ANT			L_HUM_POST			L_ELBOW_LAT			L_ELBOW_MED			L_FOREARM			L_WRIST_LAT			L_WIRST_MED			L_HAND			R_ILIAC			SACRUM			L_ILIAC			R_GTROCH			R_THIGH__1			R_THIGH_2			R_THIGH_3			R_THIGH_4			R_SHANK_1			R_SHANK_2			R_SHANK_3			R_SHANK_4			R_HEEL			R_FOOT_LAT			R_FOOT_MED			L_GTROCH			L_THIGH_1			L_THIGH_2			L_THIGH_3			L_THIGH_4			L_SHANK_1			L_SHANK_2			L_SHANK_3			L_SHANK_4			L_HEEL			L_FOOT_LAT			L_FOOT_MED			
		X1	Y1	Z1	X2	Y2	Z2	X3	Y3	Z3	X4	Y4	Z4	X5	Y5	Z5	X6	Y6	Z6	X7	Y7	Z7	X8	Y8	Z8	X9	Y9	Z9	X10	Y10	Z10	X11	Y11	Z11	X12	Y12	Z12	X13	Y13	Z13	X14	Y14	Z14	X15	Y15	Z15	X16	Y16	Z16	X17	Y17	Z17	X18	Y18	Z18	X19	Y19	Z19	X20	Y20	Z20	X21	Y21	Z21	X22	Y22	Z22	X23	Y23	Z23	X24	Y24	Z24	X25	Y25	Z25	X26	Y26	Z26	X27	Y27	Z27	X28	Y28	Z28	X29	Y29	Z29	X30	Y30	Z30	X31	Y31	Z31	X32	Y32	Z32	X33	Y33	Z33	X34	Y34	Z34	X35	Y35	Z35	X36	Y36	Z36	X37	Y37	Z37	X38	Y38	Z38	X39	Y39	Z39	X40	Y40	Z40	X41	Y41	Z41	X42	Y42	Z42	X43	Y43	Z43	X44	Y44	Z44	X45	Y45	Z45	X46	Y46	Z46	X47	Y47	Z47	X48	Y48	Z48	X49	Y49	Z49	X50	Y50	Z50	X51	Y51	Z51	X52	Y52	Z52	X53	Y53	Z53	X54	Y54	Z54	

1	0	211.1711730957031	313.8691711425781	1717.669677734375	148.0068969726562	238.1752624511719	1671.282592773438	151.3686676025391	385.5414733886719	1672.690063476562	2.99341082572937	324.8611450195312	1507.292236328125	-77.81396484375	267.2431640625	1309.612060546875	-63.09301376342773	406.2426452636719	1313.568725585938	173.6654968261719	303.2810363769531	1339.7431640625	59.95960235595703	143.1556549072266	1455.769775390625	5.671902656555176	58.83562850952148	1295.149169921875	64.05152130126953	45.86039352416992	1208.635131835938	-56.8009147644043	56.2534065246582	1212.557495117188	-12.96356773376465	42.75425720214844	1106.19921875	-20.08968734741211	122.9728012084961	1101.538208007812	77.64035797119141	20.17974472045898	920.97900390625	120.2623443603516	52.59643173217773	853.0035400390625	47.0925407409668	26.76303100585938	832.4806518554688	111.5167541503906	-1.951314330101013	764.8706665039062	100.3004150390625	483.3013305664062	1459.137451171875	98.16252899169922	578.4931030273438	1291.504150390625	162.5306243896484	565.4385375976562	1213.748779296875	48.47652816772461	611.959716796875	1211.343627929688	111.0902404785156	609.1017456054688	1109.302490234375	51.36020278930664	560.2229614257812	1100.242797851562	240.4727020263672	559.7402954101562	957.0157470703125	281.1903991699219	499.5264892578125	912.2255249023438	240.6706237792969	555.3467407226562	871.2506103515625	327.1780090332031	539.336669921875	838.5034790039062	61.36392593383789	145.8383636474609	1055.847412109375	-55.41207122802734	319.2651062011719	1031.752685546875	75.54391479492188	490.943115234375	1050.170776367188	23.08577346801758	134.8424377441406	904.2658081054688	132.9809265136719	144.0584411621094	635.8745727539062	181.5767059326172	135.0740661621094	668.1760864257812	219.8687438964844	168.1520690917969	573.0752563476562	155.5337829589844	166.3724517822266	558.1403198242188	227.4783630371094	153.1581268310547	342.8370361328125	286.7790222167969	165.6002807617188	344.8634948730469	315.1746520996094	182.6209564208984	264.6796264648438	253.9252319335938	173.4655303955078	246.0833129882812	305.6392822265625	258.1871032714844	34.55379104614258	468.5942993164062	176.2212219238281	66.56845092773438	503.4808959960938	263.7208251953125	115.0624923706055	26.62145805358887	493.785888671875	946.3319091796875	31.76663970947266	477.2194213867188	654.4074096679688	-13.67189311981201	494.2099914550781	687.9111938476562	-55.77324295043945	463.7278137207031	595.4048461914062	5.60842227935791	453.3451843261719	580.3532104492188	-124.6984634399414	445.2480773925781	333.28515625	-185.7082061767578	449.8338623046875	332.6054077148438	-218.3570404052734	431.4931640625	252.9558258056641	-156.4421997070312	421.1026306152344	238.240478515625	-321.6100463867188	361.3502807617188	90.48812866210938	-157.8231658935547	424.9124755859375	20.35459518432617	-119.6070404052734	319.4508666992188	26.48702049255371	
2	0.004	216.4342498779297	313.2401428222656	1716.9453125	153.3572692871094	237.5388793945312	1670.277587890625	156.6840362548828	384.9802551269531	1671.921508789062	8.577003479003906	324.4387817382812	1506.365112304688	-72.37346649169922	266.9658508300781	1308.64501953125	-57.54970932006836	405.7767028808594	1312.625122070312	179.3060913085938	302.6835632324219	1338.883056640625	65.45559692382812	142.6620941162109	1454.687866210938	11.17941570281982	58.66167449951172	1293.95166015625	69.63732147216797	45.68246078491211	1207.453735351562	-51.36193084716797	56.10029602050781	1211.462646484375	-7.118016242980957	42.45185089111328	1104.9169921875	-14.29391956329346	122.8117828369141	1100.5146484375	82.8157958984375	20.07172966003418	919.6529541015625	125.5015640258789	54.62136459350586	851.3237915039062	52.16050720214844	26.82760238647461	831.27587890625	116.2710571289062	-2.124708414077759	763.4024658203125	105.8185424804688	483.0051879882812	1458.192626953125	103.7798385620117	578.027099609375	1290.599731445312	168.2842712402344	564.8831787109375	1212.89013671875	54.2508659362793	611.5693359375	1210.411743164062	116.9355316162109	608.585693359375	1108.446533203125	57.12492370605469	559.8195190429688	1099.243896484375	246.5897521972656	559.095703125	956.2129516601562	287.4447937011719	498.8040161132812	911.6849365234375	246.8216552734375	554.4639892578125	870.4577026367188	333.3866271972656	538.4986572265625	837.7190551757812	66.44990539550781	146.9167175292969	1054.015625	-49.94304656982422	318.8056640625	1030.7333984375	81.11814117431641	490.5135803222656	1049.272583007812	28.86980438232422	134.6346282958984	903.2532958984375	139.8049621582031	143.6790466308594	635.2462158203125	188.4198303222656	134.9728698730469	667.7947387695312	226.5500946044922	168.3135986328125	572.84765625	162.3562316894531	166.3203430175781	557.1991577148438	234.8761596679688	153.1264343261719	342.417236328125	294.1561584472656	165.3122406005859	344.6686401367188	323.1898193359375	182.6312103271484	264.4107360839844	261.847412109375	173.7120666503906	245.7283935546875	314.5097351074219	259.4046325683594	34.91858673095703	477.832763671875	176.5523681640625	67.349609375	512.2274169921875	263.9058227539062	116.2230453491211	32.0511360168457	493.3670043945312	945.5150146484375	36.90956497192383	477.1845703125	653.7689819335938	-9.081933975219727	494.4635925292969	687.4063110351562	-50.9344482421875	463.8390502929688	595.0615844726562	10.37234020233154	453.3614501953125	579.7533569335938	-121.7610931396484	445.6409301757812	333.3881225585938	-182.7980651855469	450.1484375	333.18701171875	-215.7551422119141	432.1546936035156	253.969970703125	-154.0779876708984	421.1677856445312	238.3115234375	-320.9163818359375	362.0285034179688	92.13102722167969	-157.7056274414062	425.0330810546875	20.34953117370605	-119.65771484375	319.512939453125	26.50359535217285	
3	0.008	221.9498138427734	312.7611083984375	1716.176025390625	158.9558410644531	236.9497985839844	1669.335083007812	162.3316497802734	384.4452209472656	1671.1748046875	14.10206890106201	324.0499877929688	1505.48779296875	-66.86792755126953	266.491943359375	1307.649658203125	-51.93849182128906	405.3346862792969	1311.684326171875	184.8454742431641	302.3273315429688	1337.812255859375	70.81246948242188	142.1894073486328	1453.766357421875	16.71957397460938	58.41345596313477	1292.875854492188	75.20005798339844	45.43002319335938	1206.4091796875	-45.61488723754883	55.92182159423828	1210.347778320312	-1.676899790763855	42.639892578125	1103.890991210938	-8.491791725158691	122.7503662109375	1099.437622070312	88.05948638916016	19.89980506896973	918.3390502929688	130.6687164306641	52.28081130981445	850.1843872070312	57.32190704345703	26.71051216125488	830.1480712890625	121.1665878295898	-2.322018146514893	762.0120849609375	111.5399398803711	482.5808410644531	1457.275634765625	109.4887619018555	577.598388671875	1289.739135742188	173.9213562011719	564.2673950195312	1212.096069335938	60.13051605224609	611.0533447265625	1209.375	122.7633895874023	608.0011596679688	1107.439575195312	63.0044059753418	559.32861328125	1098.24658203125	252.5879974365234	558.4576416015625	955.4689331054688	293.5870361328125	498.1493835449219	910.9540405273438	252.7291717529297	553.5860595703125	869.6209106445312	339.4219970703125	537.7936401367188	837.0266723632812	70.32720184326172	146.3217926025391	1052.629028320312	-44.16656494140625	318.2095336914062	1029.679321289062	86.46009063720703	490.050537109375	1048.552612304688	34.94565200805664	134.4020538330078	902.1100463867188	146.6234436035156	143.2351684570312	634.6630249023438	195.1968383789062	134.9203338623047	667.5504760742188	233.1688842773438	169.3902435302734	572.4230346679688	169.2806549072266	165.72314453125	556.7984619140625	241.8405151367188	153.2821197509766	341.487060546875	301.3133850097656	165.3040924072266	344.1807250976562	330.7748718261719	182.4588470458984	264.2959289550781	269.5501403808594	173.6347198486328	245.2656860351562	323.6055908203125	260.1926879882812	34.79345703125	486.2076416015625	176.8028411865234	67.90181732177734	520.6082763671875	264.0927124023438	116.956298828125	37.17234802246094	493.1790161132812	944.9791259765625	41.73785018920898	477.1629638671875	653.2719116210938	-3.810710906982422	494.291259765625	686.7532958984375	-46.33555221557617	463.8987426757812	594.3731689453125	15.03038883209229	453.4098815917969	579.101806640625	-118.8117828369141	445.7713623046875	333.3733520507812	-179.8068389892578	450.7122497558594	333.7234802246094	-213.6110076904297	432.2684020996094	254.5284271240234	-152.0119171142578	421.7023010253906	238.6184844970703	-320.1048278808594	362.8480834960938	93.81974029541016	-157.5289916992188	425.1588134765625	20.38607025146484	-119.69091796875	319.5905456542969	26.57048606872559	
4	0.012	227.3515777587891	312.0100402832031	1715.292846679688	164.486328125	236.1941986083984	1668.390991210938	168.0166168212891	383.8168029785156	1670.484008789062	19.69475173950195	323.6554870605469	1504.535766601562	-61.20522689819336	266.2344970703125	1306.775512695312	-46.46235275268555	404.8132629394531	1310.77587890625	190.4791717529297	301.9117431640625	1337.044799804688	76.40917205810547	141.8255462646484	1452.711303710938	22.30459403991699	58.13884735107422	1291.767456054688	80.91136932373047	45.04152679443359	1205.411499023438	-39.988525390625	55.77295684814453	1209.144165039062	4.212296009063721	42.37225723266602	1102.735107421875	-2.677319288253784	122.6868209838867	1098.379638671875	93.46694183349609	19.63937950134277	917.239501953125	135.8601684570312	52.18621826171875	848.908447265625	62.43230056762695	26.63858413696289	828.7913818359375	125.8743667602539	-2.057922840118408	760.5894165039062	117.1953277587891	482.0604858398438	1456.371459960938	115.3164825439453	577.0049438476562	1288.738037109375	179.6612854003906	563.62646484375	1211.226196289062	66.01472473144531	610.5546264648438	1208.459594726562	128.6557006835938	607.4395141601562	1106.4970703125	68.93022155761719	558.841064453125	1097.284912109375	258.4764099121094	557.7254028320312	954.6911010742188	299.5759582519531	497.3997497558594	910.3468627929688	258.6673889160156	552.8107299804688	868.9270629882812	345.4066772460938	537.1334838867188	836.2855224609375	78.02494812011719	146.1912841796875	1051.793701171875	-38.51432418823242	317.6503295898438	1028.656982421875	92.03096008300781	489.5618591308594	1047.785888671875	41.12129974365234	134.0299530029297	901.0863037109375	153.6687774658203	142.6701202392578	634.2440795898438	202.0324096679688	134.9760589599609	667.1066284179688	240.2969512939453	169.3920288085938	572.1066284179688	176.3462066650391	165.1857757568359	556.5133056640625	249.0931854248047	153.2088775634766	341.2197265625	308.5531005859375	165.0777130126953	343.9164428710938	338.1890563964844	182.1555480957031	264.0811462402344	276.9010009765625	173.8644561767578	244.73291015625	331.4298706054688	260.43310546875	34.52950668334961	494.2025451660156	176.8655242919922	68.20681762695312	528.4932861328125	264.0663452148438	117.5148468017578	42.79614639282227	492.844970703125	944.2103271484375	47.02127075195312	477.1253356933594	652.4984741210938	1.014651298522949	494.5122680664062	686.226318359375	-41.09837341308594	464.0832824707031	594.082275390625	19.96648979187012	453.4887084960938	578.6813354492188	-115.6586303710938	446.285888671875	333.4631958007812	-176.6378479003906	451.1835021972656	334.400634765625	-211.2039794921875	433.2470092773438	255.3023376464844	-149.7938079833984	422.102783203125	238.6916198730469	-319.2626037597656	363.2673034667969	95.80870056152344	-157.3976745605469	425.27099609375	20.40766716003418	-119.7403030395508	319.6540222167969	26.6864070892334	
